<?xml version="1.0" encoding="utf-8"?>
<!-- Generator: Adobe Illustrator 19.0.0, SVG Export Plug-In . SVG Version: 6.00 Build 0)  -->
<svg version="1.1" id="图层_1" xmlns="http://www.w3.org/2000/svg" xmlns:xlink="http://www.w3.org/1999/xlink" x="0px" y="0px"
	 viewBox="0 0 841.9 595.3" style="enable-background:new 0 0 841.9 595.3;" xml:space="preserve">
<style type="text/css">
	.st0{clip-path:url(#SVGID_2_);fill:url(#SVGID_3_);}
	.st1{clip-path:url(#SVGID_5_);fill:url(#SVGID_6_);}
	.st2{clip-path:url(#SVGID_8_);fill:url(#SVGID_9_);}
	.st3{clip-path:url(#SVGID_11_);fill:url(#SVGID_12_);}
	.st4{clip-path:url(#SVGID_14_);fill:url(#SVGID_15_);}
	.st5{clip-path:url(#SVGID_17_);fill:url(#SVGID_18_);}
	.st6{clip-path:url(#SVGID_20_);fill:url(#SVGID_21_);}
	.st7{clip-path:url(#SVGID_23_);fill:url(#SVGID_24_);}
	.st8{clip-path:url(#SVGID_26_);fill:url(#SVGID_27_);}
	.st9{clip-path:url(#SVGID_29_);fill:url(#SVGID_30_);}
	.st10{clip-path:url(#SVGID_32_);fill:url(#SVGID_33_);}
	.st11{clip-path:url(#SVGID_35_);fill:url(#SVGID_36_);}
</style>
<g>
	<defs>
		<path id="SVGID_1_" d="M466.6,239.6c0,0-152.6,4.2-188.1,150.7c-1.1,4.3-1.9,8.6-2.7,12.7c10.5-21.4,23.9-38.3,38.1-51.5
			c32.4-30,75.2-46.2,119.3-46.2h168.2c45.1-1.3,68.6-23.5,75.2-30.8l1.8-2.2c0,0,0.1-0.1,0.1-0.1c0-0.1,0.1-0.1,0.1-0.1l27-32.5
			H466.6z"/>
	</defs>
	<clipPath id="SVGID_2_">
		<use xlink:href="#SVGID_1_"  style="overflow:visible;"/>
	</clipPath>
	
		<linearGradient id="SVGID_3_" gradientUnits="userSpaceOnUse" x1="7.705910e-003" y1="595.2745" x2="0.9989" y2="595.2745" gradientTransform="matrix(-449.4979 0 0 449.4979 707.3942 -267253.3125)">
		<stop  offset="0" style="stop-color:#AA7CF1"/>
		<stop  offset="6.926130e-007" style="stop-color:#AA7CF1"/>
		<stop  offset="8.626086e-002" style="stop-color:#9F72E8"/>
		<stop  offset="0.5285" style="stop-color:#6940BE"/>
		<stop  offset="0.7436" style="stop-color:#542DAD"/>
		<stop  offset="1" style="stop-color:#542DAD"/>
	</linearGradient>
	<rect x="275.9" y="239.6" class="st0" width="429.8" height="163.4"/>
</g>
<g>
	<defs>
		<path id="SVGID_4_" d="M434.9,302.1c-44.5,0-87.7,16.5-120.4,47.1c-14.3,13.4-27.8,30.5-38.5,52.4
			c-24.6,138.5,112.1,176.2,203.5,147.3c0,0-34.6,2.4-62.1-18.8c-29.5-14.4-71-46.7-65.5-112.8c8.4-101.3,110.9-115.1,110.9-115.1
			H434.9z"/>
	</defs>
	<clipPath id="SVGID_5_">
		<use xlink:href="#SVGID_4_"  style="overflow:visible;"/>
	</clipPath>
	
		<linearGradient id="SVGID_6_" gradientUnits="userSpaceOnUse" x1="-1.309477e-002" y1="595.2343" x2="0.9967" y2="595.2343" gradientTransform="matrix(-10.5109 293.2555 293.2555 10.5109 -174185.2813 -5956.5142)">
		<stop  offset="0" style="stop-color:#2A1E8D"/>
		<stop  offset="0.1543" style="stop-color:#2A1E8D"/>
		<stop  offset="0.1994" style="stop-color:#2E2194"/>
		<stop  offset="0.5648" style="stop-color:#4D36C8"/>
		<stop  offset="0.7436" style="stop-color:#593EDC"/>
		<stop  offset="1" style="stop-color:#593EDC"/>
	</linearGradient>
	<polygon class="st1" points="489.3,302.5 479.2,586 241.6,577.4 251.7,293.9 	"/>
</g>
<g>
	<defs>
		<path id="SVGID_7_" d="M604.1,301.9H462.2c0,0-102.5,14-110.9,116.5c-5.5,66.9,35.5,96.6,65,111.2C394,512.1,376.8,482,386,418.9
			c0,0,7.9-63.9,84.6-66.6H564c31.1,0,60.6-14.1,80.4-38.5l35.6-43.7C673.4,277.7,649.7,300.5,604.1,301.9"/>
	</defs>
	<clipPath id="SVGID_8_">
		<use xlink:href="#SVGID_7_"  style="overflow:visible;"/>
	</clipPath>
	
		<linearGradient id="SVGID_9_" gradientUnits="userSpaceOnUse" x1="-1.377898e-002" y1="595.4271" x2="1.0069" y2="595.4271" gradientTransform="matrix(-237.2847 217.5766 217.5766 237.2847 -128925.9219 -140987.2656)">
		<stop  offset="0" style="stop-color:#5438CD"/>
		<stop  offset="3.463060e-007" style="stop-color:#5438CD"/>
		<stop  offset="0.6665" style="stop-color:#141677"/>
		<stop  offset="1" style="stop-color:#141677"/>
	</linearGradient>
	<polygon class="st2" points="808,412.7 498.5,702.6 217.9,390 527.4,100 	"/>
</g>
<g>
	<defs>
		<path id="SVGID_10_" d="M262.5,239.6v53.6H218c-10.3,122.7,48.8,184.2,48.8,184.2s-16.4-34.5-13.1-85.2v0
			c-1.5-66.2,11.1-115.7,30.8-152.6H262.5z"/>
	</defs>
	<clipPath id="SVGID_11_">
		<use xlink:href="#SVGID_10_"  style="overflow:visible;"/>
	</clipPath>
	
		<linearGradient id="SVGID_12_" gradientUnits="userSpaceOnUse" x1="-8.185452e-012" y1="595.2537" x2="1" y2="595.2537" gradientTransform="matrix(-413.0803 365.781 365.781 413.0803 -217082.6094 -245886.6094)">
		<stop  offset="0" style="stop-color:#7AE4FB"/>
		<stop  offset="0.1543" style="stop-color:#7AE4FB"/>
		<stop  offset="0.2289" style="stop-color:#62C5F0"/>
		<stop  offset="0.3247" style="stop-color:#49A3E4"/>
		<stop  offset="0.4231" style="stop-color:#3589DA"/>
		<stop  offset="0.5239" style="stop-color:#2777D3"/>
		<stop  offset="0.6287" style="stop-color:#1F6CCF"/>
		<stop  offset="0.7436" style="stop-color:#1C68CE"/>
		<stop  offset="1" style="stop-color:#1C68CE"/>
	</linearGradient>
	<polygon class="st3" points="402.4,372.9 241.4,515.5 89.7,344.2 250.7,201.6 	"/>
</g>
<g>
	<defs>
		<path id="SVGID_13_" d="M434.4,53.1c0,0-116.8,2.7-178.5,108.1l48.2,27.5v20.8c63.5-80.7,164.1-78.8,164.1-78.8s162.2-0.9,209-4
			c26.9-1.8,55.7-25.8,75.3-45.9l24-27.5c0.1-0.1,0.1-0.1,0.1-0.1H434.4z"/>
	</defs>
	<clipPath id="SVGID_14_">
		<use xlink:href="#SVGID_13_"  style="overflow:visible;"/>
	</clipPath>
	
		<linearGradient id="SVGID_15_" gradientUnits="userSpaceOnUse" x1="-9.094947e-013" y1="595.3135" x2="1" y2="595.3135" gradientTransform="matrix(-413.0803 365.781 365.781 413.0803 -217098.5625 -245904.6094)">
		<stop  offset="0" style="stop-color:#7AE4FB"/>
		<stop  offset="0.1543" style="stop-color:#7AE4FB"/>
		<stop  offset="0.2289" style="stop-color:#62C5F0"/>
		<stop  offset="0.3247" style="stop-color:#49A3E4"/>
		<stop  offset="0.4231" style="stop-color:#3589DA"/>
		<stop  offset="0.5239" style="stop-color:#2777D3"/>
		<stop  offset="0.6287" style="stop-color:#1F6CCF"/>
		<stop  offset="0.7436" style="stop-color:#1C68CE"/>
		<stop  offset="1" style="stop-color:#1C68CE"/>
	</linearGradient>
	<polygon class="st4" points="854.1,140.7 484.7,467.9 178.3,121.8 547.7,-205.3 	"/>
</g>
<g>
	<defs>
		<path id="SVGID_16_" d="M677.2,126.7c-46.8,3.1-209,4-209,4s-100.7-1.9-164.1,78.8v30.2h-19.7c-19.7,36.9-32.3,86.4-30.8,152.6
			c2.4-37.5,15.6-83.9,54.1-131.6c0,0,47.3-68.8,159.2-77.3l145.9-0.8c32.5-0.2,63.4-14.3,84.8-38.9l54.8-63
			C732.8,100.8,704,124.8,677.2,126.7"/>
	</defs>
	<clipPath id="SVGID_17_">
		<use xlink:href="#SVGID_16_"  style="overflow:visible;"/>
	</clipPath>
	
		<linearGradient id="SVGID_18_" gradientUnits="userSpaceOnUse" x1="1.401586e-007" y1="595.3568" x2="1" y2="595.3568" gradientTransform="matrix(-434.2354 384.5138 384.5138 434.2354 -228203.0938 -258481.1406)">
		<stop  offset="0" style="stop-color:#2E99E7"/>
		<stop  offset="0.1543" style="stop-color:#2E99E7"/>
		<stop  offset="0.1561" style="stop-color:#2E98E7"/>
		<stop  offset="0.2657" style="stop-color:#2277D2"/>
		<stop  offset="0.3775" style="stop-color:#195DC2"/>
		<stop  offset="0.4928" style="stop-color:#134BB7"/>
		<stop  offset="0.6125" style="stop-color:#0F40B0"/>
		<stop  offset="0.7436" style="stop-color:#0E3CAE"/>
		<stop  offset="1" style="stop-color:#0E3CAE"/>
	</linearGradient>
	<polygon class="st5" points="907.1,255.3 472,640.6 97.5,217.6 532.5,-167.6 	"/>
</g>
<g>
	<defs>
		<rect id="SVGID_19_" x="229.1" y="131.6" width="38.9" height="38.9"/>
	</defs>
	<clipPath id="SVGID_20_">
		<use xlink:href="#SVGID_19_"  style="overflow:visible;"/>
	</clipPath>
	
		<linearGradient id="SVGID_21_" gradientUnits="userSpaceOnUse" x1="-9.094947e-013" y1="595.276" x2="1" y2="595.276" gradientTransform="matrix(40.9927 39.6788 39.6788 -40.9927 -23388.0898 24536.7813)">
		<stop  offset="0" style="stop-color:#3DA3EA"/>
		<stop  offset="0.2053" style="stop-color:#3DA3EA"/>
		<stop  offset="0.2954" style="stop-color:#3599E7"/>
		<stop  offset="0.5505" style="stop-color:#2281DE"/>
		<stop  offset="1" style="stop-color:#2281DE"/>
	</linearGradient>
	<polygon class="st6" points="248,112.2 287.5,150.5 249.2,190 209.7,151.7 	"/>
</g>
<g>
	<defs>
		<rect id="SVGID_22_" x="183.7" y="153.5" width="38.9" height="38.9"/>
	</defs>
	<clipPath id="SVGID_23_">
		<use xlink:href="#SVGID_22_"  style="overflow:visible;"/>
	</clipPath>
	
		<linearGradient id="SVGID_24_" gradientUnits="userSpaceOnUse" x1="6.366463e-012" y1="595.276" x2="1" y2="595.276" gradientTransform="matrix(-53.6058 48.8759 48.8759 53.6058 -28869.668 -31757.3008)">
		<stop  offset="0" style="stop-color:#48A8E3"/>
		<stop  offset="0.2053" style="stop-color:#48A8E3"/>
		<stop  offset="0.3881" style="stop-color:#368EDE"/>
		<stop  offset="0.5835" style="stop-color:#2576D9"/>
		<stop  offset="1" style="stop-color:#2576D9"/>
	</linearGradient>
	<polygon class="st7" points="241.9,174.7 201.3,211.7 164.3,171.1 204.9,134.1 	"/>
</g>
<g>
	<defs>
		<rect id="SVGID_25_" x="229.1" y="213.7" width="38.9" height="38.9"/>
	</defs>
	<clipPath id="SVGID_26_">
		<use xlink:href="#SVGID_25_"  style="overflow:visible;"/>
	</clipPath>
	
		<linearGradient id="SVGID_27_" gradientUnits="userSpaceOnUse" x1="1.637090e-011" y1="595.276" x2="1" y2="595.276" gradientTransform="matrix(38.8905 0 0 -38.8905 229.146 23383.7539)">
		<stop  offset="0" style="stop-color:#3DA3EA"/>
		<stop  offset="0.2053" style="stop-color:#3DA3EA"/>
		<stop  offset="0.2954" style="stop-color:#3599E7"/>
		<stop  offset="0.5505" style="stop-color:#2281DE"/>
		<stop  offset="1" style="stop-color:#2281DE"/>
	</linearGradient>
	<rect x="229.1" y="213.7" class="st8" width="38.9" height="38.9"/>
</g>
<g>
	<defs>
		<rect id="SVGID_28_" x="268" y="165.7" width="38.9" height="32.5"/>
	</defs>
	<clipPath id="SVGID_29_">
		<use xlink:href="#SVGID_28_"  style="overflow:visible;"/>
	</clipPath>
	
		<linearGradient id="SVGID_30_" gradientUnits="userSpaceOnUse" x1="4.547474e-012" y1="595.276" x2="1" y2="595.276" gradientTransform="matrix(-47.2993 45.1971 45.1971 47.2993 -26597.3613 -27993.2246)">
		<stop  offset="0" style="stop-color:#48A8E3"/>
		<stop  offset="0.2053" style="stop-color:#48A8E3"/>
		<stop  offset="0.3881" style="stop-color:#368EDE"/>
		<stop  offset="0.5835" style="stop-color:#2576D9"/>
		<stop  offset="1" style="stop-color:#2576D9"/>
	</linearGradient>
	<polygon class="st9" points="323.1,182.6 286.6,217.6 251.8,181.2 288.4,146.3 	"/>
</g>
<g>
	<defs>
		<rect id="SVGID_31_" x="129.1" y="227.1" width="32" height="32"/>
	</defs>
	<clipPath id="SVGID_32_">
		<use xlink:href="#SVGID_31_"  style="overflow:visible;"/>
	</clipPath>
	
		<linearGradient id="SVGID_33_" gradientUnits="userSpaceOnUse" x1="-7.275958e-012" y1="595.276" x2="1" y2="595.276" gradientTransform="matrix(33.635 -56.7591 -56.7591 -33.635 33915.2813 20294.2012)">
		<stop  offset="0" style="stop-color:#48A8E3"/>
		<stop  offset="0.2053" style="stop-color:#48A8E3"/>
		<stop  offset="0.3881" style="stop-color:#368EDE"/>
		<stop  offset="0.5835" style="stop-color:#2576D9"/>
		<stop  offset="1" style="stop-color:#2576D9"/>
	</linearGradient>
	<polygon class="st10" points="115.1,250.8 137.4,213.1 175.1,235.4 152.8,273.1 	"/>
</g>
<g>
	<defs>
		<rect id="SVGID_34_" x="187.1" y="274.8" width="37" height="37"/>
	</defs>
	<clipPath id="SVGID_35_">
		<use xlink:href="#SVGID_34_"  style="overflow:visible;"/>
	</clipPath>
	
		<linearGradient id="SVGID_36_" gradientUnits="userSpaceOnUse" x1="6.366463e-012" y1="595.276" x2="1" y2="595.276" gradientTransform="matrix(-37.3139 -58.8613 -58.8613 37.3139 35266.5977 -21883.7129)">
		<stop  offset="0" style="stop-color:#48A8E3"/>
		<stop  offset="0.2053" style="stop-color:#48A8E3"/>
		<stop  offset="0.3881" style="stop-color:#368EDE"/>
		<stop  offset="0.5835" style="stop-color:#2576D9"/>
		<stop  offset="1" style="stop-color:#2576D9"/>
	</linearGradient>
	<polygon class="st11" points="197.7,328.5 170.4,285.4 213.5,258.1 240.9,301.2 	"/>
</g>
</svg>
